{
	"asset":{
		"generator":"Khronos glTF Blender I/O v4.4.55",
		"version":"2.0"
	},
	"scene":0,
	"scenes":[
		{
			"name":"Scene",
			"nodes":[
				0,
				1,
				2,
				3,
				4
			]
		}
	],
	"nodes":[
		{
			"mesh":0,
			"name":"Landscape.001"
		},
		{
			"mesh":1,
			"name":"Pista"
		},
		{
			"mesh":2,
			"name":"Loop Duplo",
			"translation":[
				0,
				0,
				-350
			]
		},
		{
			"mesh":3,
			"name":"Loop Duplo.001",
			"rotation":[
				0,
				0.8660253882408142,
				0,
				0.4999999701976776
			],
			"translation":[
				-303.1090087890625,
				0,
				175
			]
		},
		{
			"mesh":4,
			"name":"Loop Duplo.002",
			"rotation":[
				0,
				-0.8660253882408142,
				0,
				0.4999999701976776
			],
			"translation":[
				303.1090087890625,
				0,
				175
			]
		}
	],
	"materials":[
		{
			"doubleSided":true,
			"name":"Material.002",
			"pbrMetallicRoughness":{
				"baseColorFactor":[
					0.0007717049447819591,
					0.4515770673751831,
					0,
					1
				],
				"metallicFactor":0,
				"roughnessFactor":0.5
			}
		},
		{
			"doubleSided":true,
			"name":"Material.003",
			"pbrMetallicRoughness":{
				"baseColorFactor":[
					0.13197720050811768,
					0.13197720050811768,
					0.13197720050811768,
					1
				],
				"metallicFactor":0,
				"roughnessFactor":0.5
			}
		},
		{
			"doubleSided":true,
			"name":"Material.005",
			"pbrMetallicRoughness":{
				"baseColorFactor":[
					0.13197720050811768,
					0.13197720050811768,
					0.13197720050811768,
					1
				],
				"metallicFactor":0,
				"roughnessFactor":0.5
			}
		},
		{
			"doubleSided":true,
			"name":"Material.006",
			"pbrMetallicRoughness":{
				"baseColorFactor":[
					0.13197720050811768,
					0.13197720050811768,
					0.13197720050811768,
					1
				],
				"metallicFactor":0,
				"roughnessFactor":0.5
			}
		},
		{
			"doubleSided":true,
			"name":"Material.007",
			"pbrMetallicRoughness":{
				"baseColorFactor":[
					0.13197720050811768,
					0.13197720050811768,
					0.13197720050811768,
					1
				],
				"metallicFactor":0,
				"roughnessFactor":0.5
			}
		}
	],
	"meshes":[
		{
			"name":"Landscape.002",
			"primitives":[
				{
					"attributes":{
						"POSITION":0,
						"NORMAL":1
					},
					"indices":2,
					"material":0
				}
			]
		},
		{
			"name":"TorusKnot.002",
			"primitives":[
				{
					"attributes":{
						"POSITION":3,
						"NORMAL":4
					},
					"indices":5,
					"material":1
				}
			]
		},
		{
			"name":"Cylinder.007",
			"primitives":[
				{
					"attributes":{
						"POSITION":6,
						"NORMAL":7,
						"TEXCOORD_0":8
					},
					"indices":9,
					"material":2
				}
			]
		},
		{
			"name":"Cylinder.010",
			"primitives":[
				{
					"attributes":{
						"POSITION":10,
						"NORMAL":11,
						"TEXCOORD_0":12
					},
					"indices":9,
					"material":3
				}
			]
		},
		{
			"name":"Cylinder.011",
			"primitives":[
				{
					"attributes":{
						"POSITION":13,
						"NORMAL":14,
						"TEXCOORD_0":15
					},
					"indices":9,
					"material":4
				}
			]
		}
	],
	"accessors":[
		{
			"bufferView":0,
			"componentType":5126,
			"count":16777,
			"max":[
				2965.22265625,
				98.37545776367188,
				2965.255859375
			],
			"min":[
				-2964.19970703125,
				-46.189735412597656,
				-2964.16455078125
			],
			"type":"VEC3"
		},
		{
			"bufferView":1,
			"componentType":5126,
			"count":16777,
			"type":"VEC3"
		},
		{
			"bufferView":2,
			"componentType":5123,
			"count":99144,
			"type":"SCALAR"
		},
		{
			"bufferView":3,
			"componentType":5126,
			"count":1872,
			"max":[
				538.729736328125,
				398.9100036621094,
				426.79345703125
			],
			"min":[
				-557.4827270507812,
				-7.62939453125e-05,
				-601.6905517578125
			],
			"type":"VEC3"
		},
		{
			"bufferView":4,
			"componentType":5126,
			"count":1872,
			"type":"VEC3"
		},
		{
			"bufferView":5,
			"componentType":5123,
			"count":2808,
			"type":"SCALAR"
		},
		{
			"bufferView":6,
			"componentType":5126,
			"count":288,
			"max":[
				99.85919952392578,
				100,
				50
			],
			"min":[
				-99.85919952392578,
				-2.9802322387695312e-06,
				-50
			],
			"type":"VEC3"
		},
		{
			"bufferView":7,
			"componentType":5126,
			"count":288,
			"type":"VEC3"
		},
		{
			"bufferView":8,
			"componentType":5126,
			"count":288,
			"type":"VEC2"
		},
		{
			"bufferView":9,
			"componentType":5123,
			"count":432,
			"type":"SCALAR"
		},
		{
			"bufferView":10,
			"componentType":5126,
			"count":288,
			"max":[
				99.85919952392578,
				100,
				50
			],
			"min":[
				-99.85919952392578,
				-2.9802322387695312e-06,
				-50
			],
			"type":"VEC3"
		},
		{
			"bufferView":11,
			"componentType":5126,
			"count":288,
			"type":"VEC3"
		},
		{
			"bufferView":12,
			"componentType":5126,
			"count":288,
			"type":"VEC2"
		},
		{
			"bufferView":13,
			"componentType":5126,
			"count":288,
			"max":[
				99.85919952392578,
				100,
				50
			],
			"min":[
				-99.85919952392578,
				-3.814697265625e-06,
				-50
			],
			"type":"VEC3"
		},
		{
			"bufferView":14,
			"componentType":5126,
			"count":288,
			"type":"VEC3"
		},
		{
			"bufferView":15,
			"componentType":5126,
			"count":288,
			"type":"VEC2"
		}
	],
	"bufferViews":[
		{
			"buffer":0,
			"byteLength":201324,
			"byteOffset":0,
			"target":34962
		},
		{
			"buffer":0,
			"byteLength":201324,
			"byteOffset":201324,
			"target":34962
		},
		{
			"buffer":0,
			"byteLength":198288,
			"byteOffset":402648,
			"target":34963
		},
		{
			"buffer":0,
			"byteLength":22464,
			"byteOffset":600936,
			"target":34962
		},
		{
			"buffer":0,
			"byteLength":22464,
			"byteOffset":623400,
			"target":34962
		},
		{
			"buffer":0,
			"byteLength":5616,
			"byteOffset":645864,
			"target":34963
		},
		{
			"buffer":0,
			"byteLength":3456,
			"byteOffset":651480,
			"target":34962
		},
		{
			"buffer":0,
			"byteLength":3456,
			"byteOffset":654936,
			"target":34962
		},
		{
			"buffer":0,
			"byteLength":2304,
			"byteOffset":658392,
			"target":34962
		},
		{
			"buffer":0,
			"byteLength":864,
			"byteOffset":660696,
			"target":34963
		},
		{
			"buffer":0,
			"byteLength":3456,
			"byteOffset":661560,
			"target":34962
		},
		{
			"buffer":0,
			"byteLength":3456,
			"byteOffset":665016,
			"target":34962
		},
		{
			"buffer":0,
			"byteLength":2304,
			"byteOffset":668472,
			"target":34962
		},
		{
			"buffer":0,
			"byteLength":3456,
			"byteOffset":670776,
			"target":34962
		},
		{
			"buffer":0,
			"byteLength":3456,
			"byteOffset":674232,
			"target":34962
		},
		{
			"buffer":0,
			"byteLength":2304,
			"byteOffset":677688,
			"target":34962
		}
	],
	"buffers":[
		{
			"byteLength":679992,
			"uri":"Cenario.bin"
		}
	]
}
