# Blender 4.4.0
# www.blender.org
mtllib Tetraedro Belved Subdividido Dissolved Faces 4 4 1.mtl
o Cube
v -0.128068 0.584639 -0.073577
v -0.000000 0.584502 0.148243
v 0.128068 0.584640 -0.073577
v -0.142697 0.752416 0.074711
v -0.140587 0.753778 0.081637
v -0.007052 0.752562 -0.160234
v -0.006758 0.968905 -0.003299
v -0.004908 0.971020 0.003437
v 0.000000 0.972894 0.000605
v 0.135645 0.752409 0.086925
v 0.140587 0.753778 0.081637
v -0.135645 0.752409 0.086925
v -0.000000 0.968897 0.008405
v 0.004908 0.971020 0.003437
v 0.007052 0.752562 -0.160233
v 0.000000 0.753929 -0.161868
v 0.142697 0.752416 0.074711
v 0.006758 0.968905 -0.003299
v 0.000000 0.971025 -0.005064
v -0.434629 -0.125401 0.398736
v -0.562697 -0.125263 0.176916
v -0.434630 -0.334443 0.250726
v -0.657248 -0.099551 0.387543
v -0.662361 -0.098462 0.382353
v -0.521602 -0.321108 0.465720
v -0.788853 -0.319577 0.463049
v -0.794472 -0.318615 0.458491
v -0.794365 -0.324583 0.458425
v -0.664300 -0.320954 0.218562
v -0.662361 -0.327939 0.219874
v -0.664300 -0.099544 0.375329
v -0.795611 -0.319570 0.451345
v -0.794472 -0.326627 0.452818
v -0.521602 -0.332618 0.457570
v -0.521773 -0.328090 0.463378
v -0.657248 -0.332472 0.222626
v -0.788853 -0.330607 0.455239
v -0.789564 -0.326632 0.461320
v 0.434630 -0.125401 0.398736
v 0.434629 -0.334443 0.250726
v 0.562697 -0.125263 0.176916
v 0.521602 -0.321108 0.465720
v 0.521773 -0.328090 0.463378
v 0.657248 -0.099551 0.387543
v 0.788853 -0.319577 0.463049
v 0.789564 -0.326632 0.461320
v 0.794365 -0.324583 0.458425
v 0.657248 -0.332473 0.222626
v 0.662361 -0.327939 0.219874
v 0.521602 -0.332619 0.457570
v 0.788853 -0.330607 0.455239
v 0.794472 -0.326627 0.452818
v 0.664300 -0.099544 0.375329
v 0.662361 -0.098462 0.382353
v 0.664300 -0.320954 0.218561
v 0.795611 -0.319570 0.451344
v 0.794472 -0.318615 0.458491
v 0.000000 -0.333975 -0.502075
v -0.128068 -0.124795 -0.575885
v 0.128068 -0.124795 -0.575885
v -0.135645 -0.331911 -0.680816
v -0.140587 -0.327377 -0.683864
v 0.135645 -0.331911 -0.680816
v 0.000000 -0.329758 -0.911094
v -0.004908 -0.325777 -0.914746
v 0.000000 -0.323728 -0.917455
v -0.007052 -0.098836 -0.763057
v 0.000000 -0.097749 -0.764889
v -0.142697 -0.320393 -0.684880
v -0.006758 -0.318721 -0.914989
v 0.000000 -0.317760 -0.917575
v 0.142697 -0.320393 -0.684880
v 0.140587 -0.327377 -0.683864
v 0.007052 -0.098836 -0.763057
v 0.006758 -0.318721 -0.914989
v 0.004909 -0.325777 -0.914746
v -0.142011 0.753423 0.078329
v -0.006154 0.970461 0.000295
v -0.003576 0.753572 -0.161447
v -0.003343 0.970464 -0.004572
v -0.002005 0.972525 0.001762
v 0.000000 0.972527 -0.001711
v 0.138434 0.753420 0.084523
v 0.002810 0.970457 0.006086
v -0.138434 0.753420 0.084523
v -0.002810 0.970457 0.006086
v 0.002005 0.972525 0.001762
v 0.003576 0.753572 -0.161447
v 0.003343 0.970464 -0.004572
v 0.142011 0.753424 0.078329
v 0.006154 0.970461 0.000295
v -0.660160 -0.098742 0.385212
v -0.792200 -0.318894 0.461040
v -0.521726 -0.324854 0.464997
v -0.789390 -0.323484 0.462659
v -0.794732 -0.322278 0.458639
v -0.792728 -0.325552 0.459794
v -0.663736 -0.324701 0.219027
v -0.795544 -0.323478 0.452000
v -0.663736 -0.098738 0.379017
v -0.795544 -0.318890 0.455249
v -0.794732 -0.325550 0.456322
v -0.521726 -0.330691 0.460863
v -0.789390 -0.328942 0.458795
v -0.660160 -0.330542 0.221088
v -0.792200 -0.328939 0.453927
v 0.521726 -0.324854 0.464997
v 0.789390 -0.323484 0.462659
v 0.660160 -0.098742 0.385212
v 0.792200 -0.318894 0.461040
v 0.792728 -0.325553 0.459794
v 0.794732 -0.322278 0.458639
v 0.660160 -0.330542 0.221088
v 0.792200 -0.328939 0.453927
v 0.521726 -0.330691 0.460863
v 0.789390 -0.328942 0.458795
v 0.794732 -0.325550 0.456322
v 0.663736 -0.098738 0.379017
v 0.795544 -0.318890 0.455249
v 0.663736 -0.324701 0.219027
v 0.795544 -0.323478 0.452000
v -0.138434 -0.329981 -0.682567
v -0.002810 -0.328089 -0.913335
v 0.138434 -0.329981 -0.682567
v 0.002810 -0.328089 -0.913336
v -0.002005 -0.324697 -0.916723
v 0.002005 -0.324697 -0.916723
v -0.003576 -0.098027 -0.764413
v -0.003343 -0.318038 -0.916882
v -0.142011 -0.324139 -0.684628
v -0.006154 -0.322628 -0.915262
v 0.000000 -0.321422 -0.917878
v 0.142011 -0.324139 -0.684628
v 0.006154 -0.322628 -0.915262
v 0.003576 -0.098027 -0.764413
v 0.003343 -0.318038 -0.916882
v 0.000000 -0.334687 0.282491
v 0.000000 -0.332882 0.457926
v 0.000000 -0.328287 0.463656
v 0.000000 -0.321355 0.466087
v -0.000000 -0.155282 0.409516
v 0.354735 -0.154900 -0.204903
v 0.403816 -0.320921 -0.233343
v 0.401715 -0.327854 -0.232134
v 0.396754 -0.332455 -0.229273
v 0.244824 -0.334423 -0.141557
v 0.109911 0.244984 -0.346003
v 0.007062 0.327119 -0.462006
v 0.000000 0.328287 -0.463656
v -0.007062 0.327119 -0.462007
v -0.109911 0.244984 -0.346003
v 0.354735 0.244721 0.078044
v 0.403816 0.326692 0.225192
v 0.401715 0.327855 0.232134
v 0.396754 0.326684 0.237424
v 0.244824 0.244602 0.268416
v -0.354735 -0.154900 -0.204903
v -0.403816 -0.320921 -0.233343
v -0.401715 -0.327854 -0.232134
v -0.396754 -0.332455 -0.229273
v -0.244824 -0.334423 -0.141557
v -0.354735 0.244721 0.078044
v -0.403816 0.326692 0.225192
v -0.401715 0.327854 0.232134
v -0.396754 0.326684 0.237424
v -0.244824 0.244602 0.268416
v -0.000000 -0.334706 -0.000208
v 0.000000 0.111372 0.315633
v 0.273286 0.111667 -0.157712
v -0.002966 0.972033 -0.001108
v -0.000000 0.972030 0.004029
v 0.002966 0.972033 -0.001108
v -0.792672 -0.322683 0.460874
v -0.795638 -0.322679 0.455736
v -0.792672 -0.327524 0.457446
v 0.792672 -0.322683 0.460874
v 0.792672 -0.327524 0.457446
v 0.795638 -0.322679 0.455736
v 0.000000 -0.326671 -0.915502
v -0.002966 -0.321826 -0.917212
v 0.002966 -0.321826 -0.917212
v 0.000000 -0.330924 0.461159
v 0.000000 -0.325055 0.465314
v 0.403148 -0.324621 -0.232960
v 0.399553 -0.330493 -0.230887
v 0.003595 0.327989 -0.463236
v -0.003595 0.327989 -0.463236
v 0.403148 0.327559 0.228810
v 0.399553 0.327555 0.235037
v -0.403148 -0.324621 -0.232960
v -0.399553 -0.330493 -0.230888
v -0.403148 0.327559 0.228810
v -0.399553 0.327555 0.235037
v -0.273286 0.111667 -0.157712
vn -0.0000 -1.0000 -0.0015
vn 0.0007 -1.0000 -0.0002
vn -0.0007 -1.0000 -0.0002
vn -0.0000 0.3335 0.9427
vn -0.0007 0.3324 0.9432
vn 0.0007 0.3324 0.9432
vn 0.8163 0.3344 -0.4711
vn 0.8170 0.3332 -0.4706
vn 0.8163 0.3332 -0.4719
vn -0.0084 -1.0000 0.0042
vn -0.1816 0.5761 -0.7969
vn -0.8521 0.5223 -0.0332
vn 0.1815 0.5761 -0.7969
vn -0.4551 0.5227 -0.7209
vn -0.5036 0.8137 -0.2903
vn -0.4477 0.8941 0.0080
vn -0.2114 0.9698 -0.1214
vn -0.2174 0.8944 -0.3909
vn -0.8221 0.3290 -0.4647
vn 0.5997 0.5753 0.5562
vn 0.7813 0.5755 0.2418
vn -0.5997 0.5753 0.5562
vn -0.7813 0.5755 0.2418
vn -0.0000 0.8132 0.5821
vn 0.2303 0.8939 0.3846
vn -0.0000 0.9696 0.2447
vn -0.2303 0.8939 0.3846
vn 0.8137 0.3290 -0.4793
vn 0.4551 0.5063 -0.7325
vn 0.4551 0.5227 -0.7209
vn -0.3971 0.5218 0.7550
vn 0.8521 0.5223 -0.0332
vn 0.5036 0.8137 -0.2903
vn 0.2174 0.8944 -0.3909
vn 0.2114 0.9698 -0.1215
vn 0.4477 0.8941 0.0080
vn -0.0090 0.3367 0.9416
vn -0.8622 -0.1422 -0.4863
vn -0.4071 0.5054 0.7608
vn -0.0097 -0.4201 0.9074
vn -0.0097 -0.7164 0.6976
vn -0.4964 0.0024 0.8681
vn -0.7344 0.0706 0.6751
vn -0.7213 -0.2086 0.6604
vn -0.5041 -0.3056 0.8078
vn -0.8197 0.3243 -0.4721
vn -0.7909 -0.4192 -0.4457
vn -0.6094 -0.7157 -0.3411
vn -0.7909 0.5597 0.2473
vn -0.6094 0.5595 0.5618
vn -1.0000 0.0030 -0.0042
vn -0.9518 -0.3051 0.0323
vn -0.9327 -0.2084 0.2943
vn -0.9518 0.0708 0.2985
vn -0.0090 -0.9999 -0.0049
vn -0.0100 -0.8859 0.4637
vn -0.0100 -0.1431 0.9897
vn -0.4071 -0.8855 -0.2240
vn -0.4963 -0.8196 0.2861
vn -0.5041 -0.6605 0.5565
vn -0.7213 -0.5536 0.4161
vn -0.7344 -0.6602 0.1576
vn 0.0090 0.3367 0.9416
vn 0.0097 -0.4201 0.9074
vn 0.0097 -0.7164 0.6976
vn 0.0084 0.3282 0.9446
vn 0.4071 0.5054 0.7608
vn 0.4964 0.0024 0.8681
vn 0.5041 -0.3055 0.8078
vn 0.7213 -0.2086 0.6604
vn 0.7344 0.0706 0.6751
vn 0.0090 -0.9999 -0.0049
vn 0.3970 0.5218 0.7550
vn 0.4071 -0.8855 -0.2240
vn 0.8622 -0.1422 -0.4863
vn 0.0100 -0.8859 0.4637
vn 0.4964 -0.8196 0.2861
vn 0.7344 -0.6602 0.1576
vn 0.7213 -0.5536 0.4161
vn 0.5041 -0.6604 0.5565
vn 0.8197 0.3243 -0.4721
vn 0.7909 0.5597 0.2474
vn 0.6094 0.5595 0.5618
vn 0.7909 -0.4192 -0.4457
vn 0.6094 -0.7157 -0.3411
vn 1.0000 0.0030 -0.0042
vn 0.9518 0.0708 0.2985
vn 0.9327 -0.2084 0.2943
vn 0.9518 -0.3051 0.0323
vn -0.0082 -0.9999 -0.0063
vn -0.8622 0.5059 -0.0274
vn -0.3970 -0.8855 -0.2414
vn -0.5997 -0.7157 -0.3579
vn 0.3970 -0.8855 -0.2414
vn -0.0000 -0.8191 -0.5736
vn -0.2303 -0.6597 -0.7154
vn -0.0000 -0.5529 -0.8333
vn 0.2303 -0.6596 -0.7154
vn -0.8107 0.3376 -0.4783
vn -0.8521 -0.1422 -0.5037
vn -0.4551 0.5063 -0.7325
vn -0.7813 -0.4192 -0.4625
vn 0.8521 -0.1422 -0.5037
vn -0.5036 0.0035 -0.8639
vn -0.2174 0.0716 -0.9734
vn -0.2114 -0.2076 -0.9551
vn -0.4477 -0.3045 -0.8407
vn 0.8107 0.3376 -0.4783
vn 0.7813 -0.4192 -0.4625
vn 0.5997 -0.7157 -0.3579
vn 0.1816 0.5603 -0.8081
vn -0.1816 0.5603 -0.8081
vn 0.5036 0.0035 -0.8639
vn 0.4477 -0.3045 -0.8407
vn 0.2114 -0.2076 -0.9551
vn 0.2174 0.0716 -0.9734
vn 0.0008 -1.0000 0.0093
vn 0.0084 -1.0000 0.0042
vn -0.0007 -0.8592 0.5116
vn 0.0007 -0.8592 0.5116
vn 0.0007 -0.6914 0.7225
vn -0.0007 -0.6914 0.7224
vn -0.0007 -0.4518 0.8921
vn 0.0007 -0.4518 0.8921
vn 0.0007 -0.1972 0.9804
vn -0.0007 -0.1972 0.9804
vn -0.0084 0.3282 0.9446
vn -0.0008 0.3234 0.9463
vn 0.8197 0.3376 -0.4627
vn 0.8189 0.3243 -0.4736
vn 0.8488 -0.1962 -0.4910
vn 0.8495 -0.1962 -0.4897
vn 0.7732 -0.4509 -0.4459
vn 0.7725 -0.4509 -0.4471
vn 0.6257 -0.6907 -0.3625
vn 0.6264 -0.6907 -0.3613
vn 0.4439 -0.8587 -0.2560
vn 0.4432 -0.8587 -0.2572
vn -0.0000 -0.9999 -0.0103
vn 0.0082 -0.9999 -0.0063
vn 0.8622 0.5059 -0.0274
vn 0.8107 0.3390 -0.4773
vn 0.4056 0.5288 -0.7456
vn 0.4056 0.5276 -0.7464
vn 0.1468 0.5711 -0.8077
vn 0.1468 0.5721 -0.8069
vn -0.1468 0.5721 -0.8069
vn -0.1468 0.5710 -0.8077
vn -0.4056 0.5276 -0.7464
vn -0.4056 0.5288 -0.7456
vn -0.8189 0.3390 -0.4631
vn -0.8197 0.3376 -0.4627
vn 0.8189 0.3390 -0.4631
vn 0.8137 0.3427 -0.4696
vn 0.8495 0.5271 0.0224
vn 0.8488 0.5283 0.0220
vn 0.7725 0.5715 0.2768
vn 0.7732 0.5704 0.2772
vn 0.6264 0.5702 0.5315
vn 0.6257 0.5713 0.5311
vn 0.4432 0.5279 0.7245
vn 0.4439 0.5267 0.7250
vn 0.0008 0.3234 0.9463
vn -0.0000 0.3419 0.9397
vn -0.8189 0.3243 -0.4736
vn -0.8137 0.3290 -0.4793
vn -0.8495 -0.1963 -0.4897
vn -0.8488 -0.1963 -0.4910
vn -0.7725 -0.4509 -0.4471
vn -0.7732 -0.4509 -0.4459
vn -0.6264 -0.6907 -0.3613
vn -0.6257 -0.6907 -0.3625
vn -0.4432 -0.8587 -0.2572
vn -0.4439 -0.8587 -0.2560
vn -0.0008 -1.0000 0.0093
vn 0.0100 -0.1431 0.9897
vn -0.8137 0.3427 -0.4696
vn -0.8107 0.3390 -0.4773
vn -0.8488 0.5283 0.0220
vn -0.8495 0.5271 0.0224
vn -0.7732 0.5704 0.2772
vn -0.7725 0.5715 0.2768
vn -0.6257 0.5713 0.5311
vn -0.6264 0.5702 0.5315
vn -0.4439 0.5267 0.7250
vn -0.4432 0.5279 0.7245
vn 0.0082 0.3381 0.9411
vn -0.8170 0.3332 -0.4706
vn -0.8163 0.3344 -0.4711
vn -0.8163 0.3332 -0.4719
vn 0.8221 0.3290 -0.4647
vn -0.0082 0.3381 0.9411
vt 0.546646 0.500000
vt 0.483206 0.574619
vt 0.458333 0.500000
vt 0.483206 0.425381
vt 0.414177 0.632470
vt 0.408587 0.500000
vt 0.414177 0.367530
vt 0.507470 0.195884
vt 0.375000 0.317174
vt 0.375000 0.416667
vt 0.449619 0.391794
vt 0.242530 0.460823
vt 0.300381 0.541032
vt 0.375000 0.593293
vt 0.585823 0.882470
vt 0.516794 0.824619
vt 0.541667 0.750000
vt 0.591413 0.750000
vt 0.453354 0.750000
vt 0.516794 0.675381
vt 0.585823 0.617530
vt 0.377504 0.341022
vt 0.377990 0.259181
vt 0.419259 0.299267
vt 0.868096 0.743096
vt 0.870525 0.745525
vt 0.868876 0.743876
vt 0.866908 0.741909
vt 0.862752 0.737752
vt 0.797142 0.672141
vt 0.865858 0.740858
vt 0.865667 0.740667
vt 0.623673 0.915577
vt 0.625000 0.987753
vt 0.625000 0.991049
vt 0.623405 0.990860
vt 0.864941 0.739941
vt 0.867400 0.742400
vt 0.866049 0.741049
vt 0.866704 0.741704
vt 0.867359 0.742359
vt 0.868942 0.743942
vt 0.492530 0.367530
vt 0.424267 0.299267
vt 0.384334 0.259334
vt 0.387247 0.262247
vt 0.580797 0.127299
vt 0.618876 0.018371
vt 0.620525 0.013426
vt 0.618037 0.014507
vt 0.621507 0.992759
vt 0.620525 0.995525
vt 0.618876 0.993876
vt 0.583452 0.955797
vt 0.616139 0.012609
vt 0.616049 0.008951
vt 0.612753 0.012247
vt 0.540577 0.087078
vt 0.862753 0.737753
vt 0.615925 0.015267
vt 0.618377 0.012384
vt 0.620852 0.012444
vt 0.621180 0.011462
vt 0.618614 0.010206
vt 0.580741 0.549267
vt 0.621975 0.509005
vt 0.622496 0.591022
vt 0.623312 0.508675
vt 0.623673 0.584423
vt 0.622496 0.908978
vt 0.622010 0.990819
vt 0.533978 0.096030
vt 0.580741 0.950733
vt 0.623129 0.992368
vt 0.625000 0.991704
vt 0.625000 0.992359
vt 0.622762 0.993942
vt 0.375000 0.254896
vt 0.216022 0.413986
vt 0.422540 0.297652
vt 0.381905 0.256905
vt 0.209423 0.418231
vt 0.134140 0.494051
vt 0.134181 0.496798
vt 0.132241 0.499746
vt 0.129475 0.504475
vt 0.131124 0.506124
vt 0.169203 0.538893
vt 0.376327 0.334423
vt 0.375000 0.262247
vt 0.375000 0.258951
vt 0.376595 0.259140
vt 0.132633 0.496109
vt 0.133951 0.491049
vt 0.133296 0.491704
vt 0.132641 0.492359
vt 0.131058 0.498417
vt 0.551199 0.426199
vt 0.508606 0.383606
vt 0.420936 0.296838
vt 0.379475 0.254475
vt 0.378504 0.257272
vt 0.419885 0.297652
vt 0.383880 0.258880
vt 0.383951 0.258951
vt 0.387247 0.262247
vt 0.452859 0.327859
vt 0.137247 0.487753
vt 0.381619 0.256619
vt 0.379148 0.254148
vt 0.378821 0.253821
vt 0.381386 0.256386
vt 0.498776 0.378672
vt 0.174267 0.539251
vt 0.376871 0.257633
vt 0.375000 0.258296
vt 0.375000 0.257641
vt 0.377238 0.256058
vt 0.416755 0.614719
vt 0.496328 0.376224
vt 0.334779 0.704470
vt 0.368876 0.743876
vt 0.370525 0.745525
vt 0.372823 0.741442
vt 0.376874 0.741139
vt 0.375000 0.741049
vt 0.375000 0.737753
vt 0.376327 0.665577
vt 0.333245 0.698229
vt 0.374894 0.737935
vt 0.376620 0.737646
vt 0.415221 0.624029
vt 0.373990 0.741507
vt 0.370852 0.745852
vt 0.371179 0.746180
vt 0.375327 0.741377
vt 0.379475 0.736574
vt 0.498776 0.621328
vt 0.419259 0.700733
vt 0.575733 0.137785
vt 0.419829 0.702517
vt 0.378773 0.743037
vt 0.378096 0.740925
vt 0.421763 0.708245
vt 0.381086 0.750106
vt 0.380368 0.748380
vt 0.421156 0.706499
vt 0.377504 0.658978
vt 0.377881 0.743377
vt 0.379475 0.745525
vt 0.379148 0.745852
vt 0.378821 0.746180
vt 0.376910 0.743614
vt 0.501224 0.628672
vt 0.417875 0.790221
vt 0.381124 0.756124
vt 0.379475 0.754475
vt 0.380367 0.752177
vt 0.381124 0.731629
vt 0.420485 0.704515
vt 0.379752 0.751010
vt 0.379148 0.754148
vt 0.378821 0.753821
vt 0.379148 0.749673
vt 0.578237 0.458245
vt 0.582134 0.459807
vt 0.619828 0.498221
vt 0.618985 0.500035
vt 0.618876 0.493876
vt 0.620525 0.495525
vt 0.578237 0.541755
vt 0.619828 0.501982
vt 0.578844 0.543501
vt 0.620946 0.500456
vt 0.622492 0.499481
vt 0.623726 0.501274
vt 0.621997 0.503039
vt 0.620688 0.504313
vt 0.746302 0.621302
vt 0.627188 0.502188
vt 0.625000 0.500000
vt 0.698801 0.573801
vt 0.622812 0.497812
vt 0.625000 0.500000
vt 0.622762 0.497762
vt 0.620844 0.495844
vt 0.661917 0.536917
vt 0.626794 0.501971
vt 0.580171 0.547483
vt 0.621423 0.506767
vt 0.624674 0.500398
vt 0.629475 0.504475
vt 0.626601 0.502874
vt 0.622552 0.750000
vt 0.579515 0.545485
vt 0.625000 0.508951
vt 0.625000 0.512247
vt 0.631124 0.506124
vt 0.622780 0.505962
vt 0.624363 0.505112
vt 0.377448 0.500000
vt 0.376298 0.500000
vt 0.375000 0.500000
vt 0.250000 0.625000
vt 0.251946 0.621756
vt 0.253672 0.618879
vt 0.501224 0.871328
vt 0.421763 0.791755
vt 0.500649 0.626946
vt 0.500000 0.625000
vt 0.499351 0.623054
vt 0.623703 0.750000
vt 0.625000 0.750000
vt 0.750000 0.625000
vt 0.751332 0.626332
vt 0.757470 0.632470
vt 0.625000 0.500000
vt 0.500649 0.873054
vt 0.500000 0.875000
vt 0.500000 0.375000
vt 0.498054 0.375649
vt 0.506912 0.382003
vt 0.504502 0.380309
vt 0.500217 0.377904
vt 0.625000 0.500000
vt 0.375000 0.250000
vt 0.375000 0.252595
s 0
f 58/1/1 146/2/1 167/3/1 161/4/1
f 40/5/2 137/6/2 167/3/2 146/2/2
f 22/7/3 161/4/3 167/3/3 137/6/3
f 2/8/4 166/9/4 168/10/4 156/11/4
f 20/12/5 141/13/5 168/10/5 166/9/5
f 39/14/6 156/11/6 168/10/6 141/13/6
f 3/15/7 152/16/7 169/17/7 147/18/7
f 41/19/8 142/20/8 169/17/8 152/16/8
f 60/21/9 147/18/9 169/17/9 142/20/9
f 22/7/10 34/22/10 37/23/10 36/24/10
f 80/25/11 19/26/11 16/27/11 79/28/11
f 4/29/12 77/30/12 78/31/12 7/32/12
f 88/33/13 16/34/13 19/35/13 89/36/13
f 6/37/14 7/32/14 80/25/14 79/28/14
f 7/32/15 78/31/15 170/38/15 80/25/15
f 78/31/16 8/39/16 81/40/16 170/38/16
f 170/38/17 81/40/17 9/41/17 82/42/17
f 80/25/18 170/38/18 82/42/18 19/26/18
f 21/43/19 29/44/19 32/45/19 31/46/19
f 83/47/20 11/48/20 14/49/20 84/50/20
f 91/51/21 14/52/21 11/53/21 90/54/21
f 86/55/22 8/56/22 5/57/22 85/58/22
f 77/30/23 5/59/23 8/39/23 78/31/23
f 13/60/24 84/50/24 171/61/24 86/55/24
f 84/50/25 14/49/25 87/62/25 171/61/25
f 171/61/26 87/62/26 9/63/26 81/64/26
f 86/55/27 171/61/27 81/64/27 8/56/27
f 60/21/28 72/65/28 75/66/28 74/67/28
f 74/67/29 75/66/29 136/68/29 135/69/29
f 15/70/30 88/33/30 89/36/30 18/71/30
f 12/72/31 13/60/31 86/55/31 85/58/31
f 17/73/32 18/71/32 91/51/32 90/54/32
f 18/71/33 89/36/33 172/74/33 91/51/33
f 89/36/34 19/35/34 82/75/34 172/74/34
f 172/74/35 82/75/35 9/76/35 87/77/35
f 91/51/36 172/74/36 87/77/36 14/52/36
f 165/78/37 23/79/37 20/12/37 166/9/37
f 29/44/38 98/80/38 99/81/38 32/45/38
f 23/79/39 92/82/39 93/83/39 26/84/39
f 95/85/40 38/86/40 35/87/40 94/88/40
f 103/89/41 35/90/41 38/91/41 104/92/41
f 26/84/42 93/83/42 173/93/42 95/85/42
f 93/83/43 27/94/43 96/95/43 173/93/43
f 173/93/44 96/95/44 28/96/44 97/97/44
f 95/85/45 173/93/45 97/97/45 38/86/45
f 21/43/46 157/98/46 158/99/46 29/44/46
f 98/80/47 30/100/47 33/101/47 99/81/47
f 106/102/48 33/101/48 30/100/48 105/103/48
f 101/104/49 27/105/49 24/106/49 100/107/49
f 92/82/50 24/108/50 27/94/50 93/83/50
f 32/45/51 99/81/51 174/109/51 101/104/51
f 99/81/52 33/101/52 102/110/52 174/109/52
f 174/109/53 102/110/53 28/111/53 96/112/53
f 101/104/54 174/109/54 96/112/54 27/105/54
f 36/24/55 160/113/55 161/4/55 22/7/55
f 34/22/56 103/89/56 104/92/56 37/23/56
f 25/114/57 26/84/57 95/85/57 94/88/57
f 36/24/58 37/23/58 106/102/58 105/103/58
f 37/23/59 104/92/59 175/115/59 106/102/59
f 104/92/60 38/91/60 97/116/60 175/115/60
f 175/115/61 97/116/61 28/117/61 102/118/61
f 106/102/62 175/115/62 102/118/62 33/101/62
f 44/119/63 155/120/63 156/11/63 39/14/63
f 107/121/64 43/122/64 46/123/64 108/124/64
f 116/125/65 46/126/65 43/127/65 115/128/65
f 39/14/66 42/129/66 45/130/66 44/119/66
f 44/119/67 45/130/67 110/131/67 109/132/67
f 45/130/68 108/124/68 176/133/68 110/131/68
f 108/124/69 46/123/69 111/134/69 176/133/69
f 176/133/70 111/134/70 47/135/70 112/136/70
f 110/131/71 176/133/71 112/136/71 57/137/71
f 145/138/72 48/139/72 40/5/72 146/2/72
f 10/140/73 83/47/73 84/50/73 13/60/73
f 48/139/74 113/141/74 114/142/74 51/143/74
f 55/144/75 56/145/75 121/146/75 120/147/75
f 50/148/76 51/143/76 116/125/76 115/128/76
f 51/143/77 114/142/77 177/149/77 116/125/77
f 114/142/78 52/150/78 117/151/78 177/149/78
f 177/149/79 117/151/79 47/152/79 111/153/79
f 116/125/80 177/149/80 111/153/80 46/126/80
f 142/20/81 41/19/81 55/144/81 143/154/81
f 118/155/82 54/156/82 57/157/82 119/158/82
f 110/131/83 57/137/83 54/159/83 109/132/83
f 121/146/84 52/150/84 49/160/84 120/147/84
f 113/141/85 49/160/85 52/150/85 114/142/85
f 56/145/86 119/158/86 178/161/86 121/146/86
f 119/158/87 57/157/87 112/162/87 178/161/87
f 178/161/88 112/162/88 47/163/88 117/164/88
f 121/146/89 178/161/89 117/164/89 52/150/89
f 160/113/90 61/165/90 58/1/90 161/4/90
f 31/46/91 32/45/91 101/104/91 100/107/91
f 61/165/92 122/166/92 123/167/92 64/168/92
f 122/166/93 62/169/93 65/170/93 123/167/93
f 63/171/94 64/168/94 125/172/94 124/173/94
f 64/168/95 123/167/95 179/174/95 125/172/95
f 123/167/96 65/170/96 126/175/96 179/174/96
f 179/174/97 126/175/97 66/176/97 127/177/97
f 125/172/98 179/174/98 127/177/98 76/178/98
f 150/179/99 67/180/99 59/181/99 151/182/99
f 69/183/100 70/184/100 131/185/100 130/186/100
f 67/180/101 128/187/101 129/188/101 70/184/101
f 131/185/102 65/170/102 62/169/102 130/186/102
f 72/65/103 133/189/103 134/190/103 75/66/103
f 70/184/104 129/188/104 180/191/104 131/185/104
f 129/188/105 71/192/105 132/193/105 180/191/105
f 180/191/106 132/193/106 66/176/106 126/175/106
f 131/185/107 180/191/107 126/175/107 65/170/107
f 147/18/108 60/21/108 74/67/108 148/194/108
f 133/189/109 73/195/109 76/178/109 134/190/109
f 125/172/110 76/178/110 73/195/110 124/173/110
f 136/68/111 71/196/111 68/197/111 135/69/111
f 128/187/112 68/198/112 71/192/112 129/188/112
f 75/66/113 134/190/113 181/199/113 136/68/113
f 134/190/114 76/178/114 127/177/114 181/199/114
f 181/199/115 127/177/115 66/176/115 132/200/115
f 136/68/116 181/199/116 132/200/116 71/196/116
f 137/6/117 40/5/117 50/148/117 138/201/117
f 40/5/118 48/139/118 51/143/118 50/148/118
f 34/22/119 138/201/119 182/202/119 103/89/119
f 138/201/120 50/148/120 115/128/120 182/202/120
f 182/202/121 115/128/121 43/127/121 139/203/121
f 103/89/122 182/202/122 139/203/122 35/90/122
f 35/87/123 139/204/123 183/205/123 94/88/123
f 139/204/124 43/122/124 107/121/124 183/205/124
f 183/205/125 107/121/125 42/129/125 140/206/125
f 94/88/126 183/205/126 140/206/126 25/114/126
f 20/12/127 23/79/127 26/84/127 25/114/127
f 25/114/128 140/206/128 141/13/128 20/12/128
f 41/19/129 152/16/129 153/207/129 53/208/129
f 60/21/130 142/20/130 143/154/130 72/65/130
f 72/65/131 143/154/131 184/209/131 133/189/131
f 143/154/132 55/144/132 120/147/132 184/209/132
f 184/209/133 120/147/133 49/160/133 144/210/133
f 133/189/134 184/209/134 144/210/134 73/195/134
f 73/195/135 144/210/135 185/211/135 124/173/135
f 144/210/136 49/160/136 113/141/136 185/211/136
f 185/211/137 113/141/137 48/139/137 145/138/137
f 124/173/138 185/211/138 145/138/138 63/171/138
f 58/1/139 61/165/139 64/168/139 63/171/139
f 63/171/140 145/138/140 146/2/140 58/1/140
f 53/208/141 118/155/141 119/158/141 56/145/141
f 3/15/142 147/18/142 148/194/142 15/70/142
f 15/70/143 148/194/143 186/212/143 88/33/143
f 148/194/144 74/67/144 135/69/144 186/212/144
f 186/212/145 135/69/145 68/197/145 149/213/145
f 88/33/146 186/212/146 149/213/146 16/34/146
f 16/27/147 149/214/147 187/215/147 79/28/147
f 149/214/148 68/198/148 128/187/148 187/215/148
f 187/215/149 128/187/149 67/180/149 150/179/149
f 79/28/150 187/215/150 150/179/150 6/37/150
f 1/216/151 162/217/151 163/184/151 4/29/151
f 162/217/152 21/43/152 31/46/152 163/184/152
f 152/16/153 3/15/153 17/73/153 153/207/153
f 3/15/154 15/70/154 18/71/154 17/73/154
f 53/208/155 153/207/155 188/218/155 118/155/155
f 153/207/156 17/73/156 90/54/156 188/218/156
f 188/218/157 90/54/157 11/53/157 154/219/157
f 118/155/158 188/218/158 154/219/158 54/156/158
f 54/159/159 154/220/159 189/221/159 109/132/159
f 154/220/160 11/48/160 83/47/160 189/221/160
f 189/221/161 83/47/161 10/140/161 155/120/161
f 109/132/162 189/221/162 155/120/162 44/119/162
f 140/206/163 42/129/163 39/14/163 141/13/163
f 2/8/164 10/140/164 13/60/164 12/72/164
f 157/98/165 59/181/165 69/183/165 158/99/165
f 59/181/166 67/180/166 70/184/166 69/183/166
f 29/44/167 158/99/167 190/222/167 98/80/167
f 158/99/168 69/183/168 130/186/168 190/222/168
f 190/222/169 130/186/169 62/169/169 159/223/169
f 98/80/170 190/222/170 159/223/170 30/100/170
f 30/100/171 159/223/171 191/224/171 105/103/171
f 159/223/172 62/169/172 122/166/172 191/224/172
f 191/224/173 122/166/173 61/165/173 160/113/173
f 105/103/174 191/224/174 160/113/174 36/24/174
f 22/7/175 137/6/175 138/201/175 34/22/175
f 42/129/176 107/121/176 108/124/176 45/130/176
f 1/216/177 4/29/177 7/32/177 6/37/177
f 6/37/178 150/179/178 151/182/178 1/216/178
f 4/29/179 163/184/179 192/184/179 77/30/179
f 163/184/180 31/46/180 100/107/180 192/184/180
f 192/184/181 100/107/181 24/106/181 164/225/181
f 77/30/182 192/184/182 164/225/182 5/59/182
f 5/57/183 164/226/183 193/227/183 85/58/183
f 164/226/184 24/108/184 92/82/184 193/227/184
f 193/227/185 92/82/185 23/79/185 165/78/185
f 85/58/186 193/227/186 165/78/186 12/72/186
f 155/120/187 10/140/187 2/8/187 156/11/187
f 21/43/188 162/217/188 194/225/188 157/98/188
f 1/216/189 151/182/189 194/225/189 162/217/189
f 59/181/190 157/98/190 194/225/190 151/182/190
f 41/19/191 53/208/191 56/145/191 55/144/191
f 12/72/192 165/78/192 166/9/192 2/8/192
